HIERARCHY
ROOT mixamorig:Hips
{
	OFFSET 0.000000 85.230415 0.000000
	CHANNELS 6 Xposition Yposition Zposition Zrotation Yrotation Xrotation 
	JOINT mixamorig:Spine
	{
		OFFSET -0.000014 7.868595 1.166200
		CHANNELS 3 Zrotation Yrotation Xrotation
		JOINT mixamorig:Spine1
		{
			OFFSET 0.000000 8.307600 0.241180
			CHANNELS 3 Zrotation Yrotation Xrotation
			JOINT mixamorig:Spine2
			{
				OFFSET 0.000000 7.469998 -0.455969
				CHANNELS 3 Zrotation Yrotation Xrotation
				JOINT mixamorig:Neck
				{
					OFFSET 0.000000 21.623920 -3.130763
					CHANNELS 3 Zrotation Yrotation Xrotation
					JOINT mixamorig:Head
					{
						OFFSET 0.000000 8.979096 1.007916
						CHANNELS 3 Zrotation Yrotation Xrotation
						JOINT mixamorig:HeadTop_End
						{
							OFFSET 0.000000 36.978806 0.701265
							CHANNELS 3 Zrotation Yrotation Xrotation
							End Site
							{
								OFFSET 0.000000 0.000000 0.000000
							}
						}
						JOINT mixamorig:HairB
						{
							OFFSET -6.414200 28.771164 21.708258
							CHANNELS 3 Zrotation Yrotation Xrotation
							End Site
							{
								OFFSET 0.000000 0.000000 0.000000
							}
						}
						JOINT mixamorig:HairA
						{
							OFFSET -11.484100 27.496475 17.498951
							CHANNELS 3 Zrotation Yrotation Xrotation
							End Site
							{
								OFFSET 0.000000 0.000000 0.000000
							}
						}
						JOINT mixamorig:Bow_Left
						{
							OFFSET -6.807600 33.586777 20.752766
							CHANNELS 3 Zrotation Yrotation Xrotation
							End Site
							{
								OFFSET 0.000000 0.000000 0.000000
							}
						}
						JOINT mixamorig:Bow_Right
						{
							OFFSET -11.133100 30.313980 19.500957
							CHANNELS 3 Zrotation Yrotation Xrotation
							End Site
							{
								OFFSET 0.000000 0.000000 0.000000
							}
						}
						JOINT mixamorig:HairC
						{
							OFFSET 2.525900 31.959274 20.608562
							CHANNELS 3 Zrotation Yrotation Xrotation
							JOINT mixamorig:HairC1
							{
								OFFSET 1.733735 -3.232010 3.632423
								CHANNELS 3 Zrotation Yrotation Xrotation
								End Site
								{
									OFFSET 0.000000 0.000000 0.000000
								}
							}
						}
						JOINT mixamorig:Ponytail
						{
							OFFSET -0.181100 31.348724 -13.427048
							CHANNELS 3 Zrotation Yrotation Xrotation
							JOINT mixamorig:Ponytail1
							{
								OFFSET -0.746532 2.567368 -7.327436
								CHANNELS 3 Zrotation Yrotation Xrotation
								JOINT mixamorig:Ponytail2
								{
									OFFSET -0.357839 -10.803711 -7.221615
									CHANNELS 3 Zrotation Yrotation Xrotation
									End Site
									{
										OFFSET 0.000000 0.000000 0.000000
									}
								}
							}
						}
					}
				}
				JOINT mixamorig:LeftShoulder
				{
					OFFSET 4.215800 16.566912 -4.092373
					CHANNELS 3 Zrotation Yrotation Xrotation
					JOINT mixamorig:LeftArm
					{
						OFFSET 8.521194 -0.267406 -1.717659
						CHANNELS 3 Zrotation Yrotation Xrotation
						JOINT mixamorig:LeftForeArm
						{
							OFFSET 21.262897 0.000002 -0.000001
							CHANNELS 3 Zrotation Yrotation Xrotation
							JOINT mixamorig:LeftHand
							{
								OFFSET 21.154701 -0.000003 -0.000001
								CHANNELS 3 Zrotation Yrotation Xrotation
								JOINT mixamorig:LeftHandThumb1
								{
									OFFSET 4.109039 -1.962593 2.610258
									CHANNELS 3 Zrotation Yrotation Xrotation
									JOINT mixamorig:LeftHandThumb2
									{
										OFFSET 3.101486 -1.790642 1.790644
										CHANNELS 3 Zrotation Yrotation Xrotation
										JOINT mixamorig:LeftHandThumb3
										{
											OFFSET 3.038742 -1.754417 1.754420
											CHANNELS 3 Zrotation Yrotation Xrotation
											JOINT mixamorig:LeftHandThumb4
											{
												OFFSET 2.539978 -1.466461 1.466458
												CHANNELS 3 Zrotation Yrotation Xrotation
												End Site
												{
													OFFSET 0.000000 0.000000 0.000000
												}
											}
										}
									}
								}
								JOINT mixamorig:LeftHandIndex1
								{
									OFFSET 11.845871 -0.683540 3.729384
									CHANNELS 3 Zrotation Yrotation Xrotation
									JOINT mixamorig:LeftHandIndex2
									{
										OFFSET 3.283096 0.000000 -0.000000
										CHANNELS 3 Zrotation Yrotation Xrotation
										JOINT mixamorig:LeftHandIndex3
										{
											OFFSET 3.323807 0.000000 -0.000000
											CHANNELS 3 Zrotation Yrotation Xrotation
											JOINT mixamorig:LeftHandIndex4
											{
												OFFSET 3.020599 0.000000 -0.000000
												CHANNELS 3 Zrotation Yrotation Xrotation
												End Site
												{
													OFFSET 0.000000 0.000000 0.000000
												}
											}
										}
									}
								}
								JOINT mixamorig:LeftHandMiddle1
								{
									OFFSET 12.082413 0.000000 -0.000000
									CHANNELS 3 Zrotation Yrotation Xrotation
									JOINT mixamorig:LeftHandMiddle2
									{
										OFFSET 3.410500 0.000000 0.000000
										CHANNELS 3 Zrotation Yrotation Xrotation
										JOINT mixamorig:LeftHandMiddle3
										{
											OFFSET 3.312202 0.000000 0.000000
											CHANNELS 3 Zrotation Yrotation Xrotation
											JOINT mixamorig:LeftHandMiddle4
											{
												OFFSET 3.438499 0.000000 0.000000
												CHANNELS 3 Zrotation Yrotation Xrotation
												End Site
												{
													OFFSET 0.000000 0.000000 0.000000
												}
											}
										}
									}
								}
								JOINT mixamorig:LeftHandRing1
								{
									OFFSET 12.470573 0.087585 -2.973213
									CHANNELS 3 Zrotation Yrotation Xrotation
									JOINT mixamorig:LeftHandRing2
									{
										OFFSET 3.053307 0.000000 0.000000
										CHANNELS 3 Zrotation Yrotation Xrotation
										JOINT mixamorig:LeftHandRing3
										{
											OFFSET 3.295898 0.000000 0.000000
											CHANNELS 3 Zrotation Yrotation Xrotation
											JOINT mixamorig:LeftHandRing4
											{
												OFFSET 3.727997 0.000000 0.000000
												CHANNELS 3 Zrotation Yrotation Xrotation
												End Site
												{
													OFFSET 0.000000 0.000000 0.000000
												}
											}
										}
									}
								}
								JOINT mixamorig:LeftHandPinky1
								{
									OFFSET 11.691048 -0.779549 -5.760270
									CHANNELS 3 Zrotation Yrotation Xrotation
									JOINT mixamorig:LeftHandPinky2
									{
										OFFSET 2.861702 0.000000 0.000000
										CHANNELS 3 Zrotation Yrotation Xrotation
										JOINT mixamorig:LeftHandPinky3
										{
											OFFSET 2.863403 0.000000 0.000000
											CHANNELS 3 Zrotation Yrotation Xrotation
											JOINT mixamorig:LeftHandPinky4
											{
												OFFSET 2.545403 0.000000 0.000000
												CHANNELS 3 Zrotation Yrotation Xrotation
												End Site
												{
													OFFSET 0.000000 0.000000 0.000000
												}
											}
										}
									}
								}
							}
							JOINT mixamorig:LeftWristTwist
							{
								OFFSET 10.565701 0.000000 -0.000000
								CHANNELS 3 Zrotation Yrotation Xrotation
								End Site
								{
									OFFSET 0.000000 0.000000 0.000000
								}
							}
						}
						JOINT mixamorig:LeftUpArmTwist
						{
							OFFSET 10.646198 0.000000 -0.000000
							CHANNELS 3 Zrotation Yrotation Xrotation
							End Site
							{
								OFFSET 0.000000 0.000000 0.000000
							}
						}
					}
				}
				JOINT mixamorig:Right_Breast
				{
					OFFSET -2.562200 12.208893 5.100423
					CHANNELS 3 Zrotation Yrotation Xrotation
					End Site
					{
						OFFSET 0.000000 0.000000 0.000000
					}
				}
				JOINT mixamorig:Left_Breast
				{
					OFFSET 2.562200 12.208893 5.100423
					CHANNELS 3 Zrotation Yrotation Xrotation
					End Site
					{
						OFFSET 0.000000 0.000000 0.000000
					}
				}
				JOINT mixamorig:RightShoulder
				{
					OFFSET -4.215800 16.567416 -4.092373
					CHANNELS 3 Zrotation Yrotation Xrotation
					JOINT mixamorig:RightArm
					{
						OFFSET -8.521288 -0.267902 -1.717664
						CHANNELS 3 Zrotation Yrotation Xrotation
						JOINT mixamorig:RightForeArm
						{
							OFFSET -21.262793 -0.000002 0.000001
							CHANNELS 3 Zrotation Yrotation Xrotation
							JOINT mixamorig:RightHand
							{
								OFFSET -21.154800 0.000000 -0.000001
								CHANNELS 3 Zrotation Yrotation Xrotation
								JOINT mixamorig:RightHandThumb1
								{
									OFFSET -4.108955 -1.962654 2.610195
									CHANNELS 3 Zrotation Yrotation Xrotation
									JOINT mixamorig:RightHandThumb2
									{
										OFFSET -3.101406 -1.790596 1.790599
										CHANNELS 3 Zrotation Yrotation Xrotation
										JOINT mixamorig:RightHandThumb3
										{
											OFFSET -3.038822 -1.754463 1.754464
											CHANNELS 3 Zrotation Yrotation Xrotation
											JOINT mixamorig:RightHandThumb4
											{
												OFFSET -2.539749 -1.466324 1.466325
												CHANNELS 3 Zrotation Yrotation Xrotation
												End Site
												{
													OFFSET 0.000000 0.000000 0.000000
												}
											}
										}
									}
								}
								JOINT mixamorig:RightHandIndex1
								{
									OFFSET -11.845840 -0.684052 3.729363
									CHANNELS 3 Zrotation Yrotation Xrotation
									JOINT mixamorig:RightHandIndex2
									{
										OFFSET -3.283096 0.000000 -0.000000
										CHANNELS 3 Zrotation Yrotation Xrotation
										JOINT mixamorig:RightHandIndex3
										{
											OFFSET -3.323807 0.000000 -0.000000
											CHANNELS 3 Zrotation Yrotation Xrotation
											JOINT mixamorig:RightHandIndex4
											{
												OFFSET -3.020599 0.000000 0.000000
												CHANNELS 3 Zrotation Yrotation Xrotation
												End Site
												{
													OFFSET 0.000000 0.000000 0.000000
												}
											}
										}
									}
								}
								JOINT mixamorig:RightHandMiddle1
								{
									OFFSET -12.082314 0.000000 0.000000
									CHANNELS 3 Zrotation Yrotation Xrotation
									JOINT mixamorig:RightHandMiddle2
									{
										OFFSET -3.410606 0.000000 0.000000
										CHANNELS 3 Zrotation Yrotation Xrotation
										JOINT mixamorig:RightHandMiddle3
										{
											OFFSET -3.312195 0.000000 0.000000
											CHANNELS 3 Zrotation Yrotation Xrotation
											JOINT mixamorig:RightHandMiddle4
											{
												OFFSET -3.438499 0.000000 0.000000
												CHANNELS 3 Zrotation Yrotation Xrotation
												End Site
												{
													OFFSET 0.000000 0.000000 0.000000
												}
											}
										}
									}
								}
								JOINT mixamorig:RightHandRing1
								{
									OFFSET -12.470573 0.087166 -2.973210
									CHANNELS 3 Zrotation Yrotation Xrotation
									JOINT mixamorig:RightHandRing2
									{
										OFFSET -3.053299 0.000000 0.000000
										CHANNELS 3 Zrotation Yrotation Xrotation
										JOINT mixamorig:RightHandRing3
										{
											OFFSET -3.295898 0.000000 0.000000
											CHANNELS 3 Zrotation Yrotation Xrotation
											JOINT mixamorig:RightHandRing4
											{
												OFFSET -3.727997 0.000000 0.000000
												CHANNELS 3 Zrotation Yrotation Xrotation
												End Site
												{
													OFFSET 0.000000 0.000000 0.000000
												}
											}
										}
									}
								}
								JOINT mixamorig:RightHandPinky1
								{
									OFFSET -11.691017 -0.779953 -5.760294
									CHANNELS 3 Zrotation Yrotation Xrotation
									JOINT mixamorig:RightHandPinky2
									{
										OFFSET -2.861603 0.000000 0.000000
										CHANNELS 3 Zrotation Yrotation Xrotation
										JOINT mixamorig:RightHandPinky3
										{
											OFFSET -2.863403 0.000000 0.000000
											CHANNELS 3 Zrotation Yrotation Xrotation
											JOINT mixamorig:RightHandPinky4
											{
												OFFSET -2.545303 0.000000 0.000000
												CHANNELS 3 Zrotation Yrotation Xrotation
												End Site
												{
													OFFSET 0.000000 0.000000 0.000000
												}
											}
										}
									}
								}
							}
							JOINT mixamorig:RightWristTwist
							{
								OFFSET -10.565701 0.000000 0.000000
								CHANNELS 3 Zrotation Yrotation Xrotation
								End Site
								{
									OFFSET 0.000000 0.000000 0.000000
								}
							}
						}
						JOINT mixamorig:RightUpArmTwist
						{
							OFFSET -10.646093 0.000000 0.000001
							CHANNELS 3 Zrotation Yrotation Xrotation
							End Site
							{
								OFFSET 0.000000 0.000000 0.000000
							}
						}
					}
				}
			}
		}
		JOINT mixamorig:Belly
		{
			OFFSET 0.000000 -0.538567 3.357786
			CHANNELS 3 Zrotation Yrotation Xrotation
			End Site
			{
				OFFSET 0.000000 0.000000 0.000000
			}
		}
	}
	JOINT mixamorig:LeftUpLeg
	{
		OFFSET 8.267015 -7.995487 -0.379100
		CHANNELS 3 Zrotation Yrotation Xrotation
		JOINT mixamorig:LeftLeg
		{
			OFFSET -0.000034 -32.369440 0.062314
			CHANNELS 3 Zrotation Yrotation Xrotation
			JOINT mixamorig:LeftFoot
			{
				OFFSET 0.000024 -35.030462 -2.208349
				CHANNELS 3 Zrotation Yrotation Xrotation
				JOINT mixamorig:LeftToeBase
				{
					OFFSET 1.232905 -9.835773 10.854839
					CHANNELS 3 Zrotation Yrotation Xrotation
					JOINT mixamorig:LeftToe_End
					{
						OFFSET 0.210410 0.001970 7.008142
						CHANNELS 3 Zrotation Yrotation Xrotation
						End Site
						{
							OFFSET 0.000000 0.000000 0.000000
						}
					}
				}
			}
		}
	}
	JOINT mixamorig:RightUpLeg
	{
		OFFSET -8.266986 -7.995517 -0.379100
		CHANNELS 3 Zrotation Yrotation Xrotation
		JOINT mixamorig:RightLeg
		{
			OFFSET 0.000002 -32.369437 0.062314
			CHANNELS 3 Zrotation Yrotation Xrotation
			JOINT mixamorig:RightFoot
			{
				OFFSET 0.000001 -35.030467 -2.208349
				CHANNELS 3 Zrotation Yrotation Xrotation
				JOINT mixamorig:RightToeBase
				{
					OFFSET -1.232895 -9.835700 10.854908
					CHANNELS 3 Zrotation Yrotation Xrotation
					JOINT mixamorig:RightToe_End
					{
						OFFSET -0.214257 0.001952 7.007725
						CHANNELS 3 Zrotation Yrotation Xrotation
						End Site
						{
							OFFSET 0.000000 0.000000 0.000000
						}
					}
				}
			}
		}
	}
	JOINT mixamorig:SkirtA
	{
		OFFSET 11.243096 1.931320 -10.868500
		CHANNELS 3 Zrotation Yrotation Xrotation
		JOINT mixamorig:SkirtA1
		{
			OFFSET 2.094878 -7.760521 -3.754759
			CHANNELS 3 Zrotation Yrotation Xrotation
			End Site
			{
				OFFSET 0.000000 0.000000 0.000000
			}
		}
	}
	JOINT mixamorig:SkirtB
	{
		OFFSET -0.000008 4.335800 -15.692000
		CHANNELS 3 Zrotation Yrotation Xrotation
		JOINT mixamorig:SkirtB1
		{
			OFFSET 0.000000 -9.729668 -3.399943
			CHANNELS 3 Zrotation Yrotation Xrotation
			End Site
			{
				OFFSET 0.000000 0.000000 0.000000
			}
		}
	}
	JOINT mixamorig:SkirtC
	{
		OFFSET -11.243104 1.931381 -10.868500
		CHANNELS 3 Zrotation Yrotation Xrotation
		JOINT mixamorig:SkirtC1
		{
			OFFSET -1.996108 -7.801628 -3.723248
			CHANNELS 3 Zrotation Yrotation Xrotation
			End Site
			{
				OFFSET 0.000000 0.000000 0.000000
			}
		}
	}
}
MOTION
Frames: 4
Frame Time: 0.016667
-90.627319 80.253746 88.932220 109.569295 -14.690976 -68.023276 -3.094231 4.004707 2.574223 -6.691919 8.428820 4.622683 -6.683984 8.545396 4.517105 -9.963576 5.404995 1.764252 -24.728008 15.502842 9.298645 0.000001 0.000003 0.000000 -0.000002 0.000004 -0.000004 0.000000 0.000000 -0.000003 0.000007 0.000000 -0.000003 0.000000 0.000002 0.000002 0.000001 0.000004 -0.000001 -0.000003 -0.000004 0.000005 -0.000001 0.000003 0.000002 0.000005 -0.000002 0.000003 -0.000002 0.000002 0.000003 -29.823337 3.977897 2.097969 -28.974491 20.275063 -21.939874 0.229982 -0.062702 -1.140297 -6.850387 1.706358 51.955390 0.395232 -10.637928 -3.219711 7.097299 26.180093 10.021637 14.893302 9.533338 -3.708637 -0.000004 0.000002 -0.000000 -25.343610 3.391904 -1.142045 -15.810259 1.599261 -0.222077 -16.438390 1.661099 -0.239962 0.000000 -0.000002 -0.000001 -27.543818 4.735544 -1.697644 -24.860176 2.466873 -0.543813 -25.718205 2.546236 -0.581348 0.000000 0.000000 0.000001 -31.948001 5.624957 -2.080179 -29.028321 2.846750 -0.737102 -29.908312 2.925058 -0.781410 -0.000001 0.000000 0.000000 -26.021383 7.633629 -3.740822 -23.385300 2.329192 -0.482086 -30.215251 2.952209 -0.797154 0.000001 -0.000004 0.000001 0.000000 -0.000001 0.000000 -0.000000 0.000002 -0.000001 -0.000001 0.000000 0.000001 -0.000001 0.000000 0.000001 18.158491 23.550373 -0.781738 75.297257 56.745723 82.246567 7.138297 50.989784 5.894224 5.841379 23.341712 48.356005 -2.222976 24.562969 -17.489199 -14.474544 -38.676403 16.389442 -14.676857 -0.597934 -6.857313 0.000000 0.000003 0.000002 12.679648 -4.758442 -0.566152 13.535949 -1.092312 -0.129630 13.534040 -1.092150 -0.129605 0.000001 -0.000003 -0.000000 26.718660 -5.498288 -1.478982 27.977478 -2.188545 -0.545280 30.002204 -2.332580 -0.625140 -0.000001 0.000000 0.000000 35.682146 -6.780979 -2.163356 33.814631 -2.595684 -0.789119 35.835282 -2.730538 -0.883031 -0.000001 0.000000 0.000000 45.199717 -7.642153 -3.498708 41.014098 -3.060088 -1.144780 40.872368 -3.051381 -1.137220 -0.000003 -0.000001 0.000000 -0.000002 0.000003 -0.000001 0.000000 0.000000 -0.000002 -0.000002 0.000000 0.000001 41.578688 35.818270 -22.743503 -0.261732 -7.572736 23.874009 9.548034 22.596633 43.812603 0.000000 -0.000004 7.564579 -0.000003 0.000002 0.000002 -30.555754 -45.534134 -70.810677 -1.577342 5.285574 33.713229 -2.564211 -19.588221 -24.151741 -0.000002 -0.000002 -2.201411 0.000000 0.000003 0.000000 -0.000002 -0.000000 -0.000004 0.000000 -0.000002 0.000000 0.000001 0.000000 0.000000 0.000001 -0.000002 -0.000003 0.000001 0.000001 -0.000002 -0.000002 0.000001 -0.000000 
-91.221237 80.253746 89.428329 110.504783 -14.304084 -69.024488 -2.961144 3.936844 2.878254 -6.496379 8.446431 5.223420 -6.441706 8.652562 5.122970 -10.023834 5.484713 2.253807 -24.550558 15.274283 9.606936 0.000000 -0.000001 0.000000 -0.000003 -0.000002 0.000000 -0.000001 0.000002 -0.000000 0.000006 -0.000005 -0.000001 -0.000002 0.000001 0.000005 0.000001 -0.000003 -0.000000 0.000003 -0.000000 0.000004 0.000001 -0.000002 0.000003 0.000003 0.000001 0.000004 -0.000004 0.000003 0.000002 -28.135862 4.467102 2.193218 -31.956165 22.669343 -22.085410 0.212449 -0.051983 -1.159104 -10.705473 5.842175 50.677943 -0.676939 -11.456514 -2.407813 8.065213 28.671498 10.865624 15.279721 11.041231 -3.015154 -0.000004 0.000001 0.000003 -29.404691 3.457864 -1.418657 -18.774742 1.889059 -0.312333 -19.464461 1.955737 -0.335455 -0.000005 -0.000004 0.000002 -32.186384 5.091387 -2.101679 -29.604092 2.898062 -0.765961 -30.552024 2.981903 -0.814587 0.000000 0.000001 0.000000 -37.471893 6.163601 -2.591021 -34.575220 3.328247 -1.036110 -35.545848 3.409389 -1.093152 0.000001 -0.000001 -0.000001 -30.517599 8.606797 -4.552044 -27.930937 2.748141 -0.683559 -35.950333 3.442908 -1.117334 0.000001 0.000000 0.000000 0.000000 0.000000 -0.000002 0.000000 0.000000 -0.000002 0.000001 0.000000 0.000000 0.000001 0.000000 0.000000 18.369977 23.464128 -0.939352 72.227804 53.684591 78.473046 6.797047 50.762941 5.700558 3.728778 25.723166 46.082334 -2.177539 25.047342 -17.728686 -14.903529 -39.353861 16.792131 -14.690702 -0.416419 -6.944550 0.000002 0.000002 0.000005 12.967483 -4.818544 -0.582505 13.921928 -1.122829 -0.137100 13.917071 -1.122469 -0.136995 0.000002 0.000000 0.000000 27.434575 -5.574558 -1.531050 28.798355 -2.247298 -0.577047 30.872407 -2.393613 -0.661027 0.000000 -0.000001 0.000000 36.661841 -6.873617 -2.242227 34.810944 -2.662592 -0.834820 36.883858 -2.799152 -0.933592 -0.000005 0.000002 -0.000000 46.445925 -7.737171 -3.616960 42.226275 -3.133689 -1.210275 42.078582 -3.124777 -1.202207 -0.000001 0.000001 -0.000000 0.000000 0.000001 0.000000 0.000000 0.000000 0.000003 0.000001 0.000001 -0.000002 42.335190 35.640455 -23.088504 -0.622036 -5.331776 33.256677 3.446701 26.132310 39.145297 -0.000051 0.000003 7.415868 0.000001 0.000002 0.000000 -31.598860 -45.336462 -70.273600 -1.434545 5.424294 33.648847 -2.072196 -19.102427 -24.378988 0.000000 0.000020 -2.154195 0.000000 -0.000001 0.000000 0.000002 0.000002 -0.000003 -0.000002 -0.000001 0.000002 -0.000000 0.000002 -0.000003 0.000000 -0.000002 -0.000002 0.000002 0.000001 0.000003 0.000000 0.000001 0.000001 
-91.798210 80.289230 89.951096 111.498191 -13.955869 -70.242312 -2.743256 3.804026 3.223113 -6.164809 8.543391 5.931869 -6.103133 8.770223 5.828715 -10.289447 5.641646 2.729502 -24.319947 15.125103 10.019435 -0.000000 0.000001 -0.000001 -0.000004 0.000000 0.000003 0.000000 -0.000003 -0.000002 0.000008 -0.000001 -0.000000 -0.000003 0.000005 0.000003 -0.000002 -0.000000 -0.000006 0.000003 -0.000004 0.000002 -0.000001 0.000000 0.000003 0.000000 0.000001 0.000002 0.000000 0.000002 0.000004 -26.725292 5.019846 2.231948 -34.603395 24.898058 -22.399797 0.201319 -0.106282 -1.152214 -14.224517 9.616036 47.828761 -1.744775 -12.177969 -1.643230 9.035586 30.997448 11.724162 15.655264 12.429826 -2.360441 -0.000003 0.000001 0.000002 -33.201322 3.497301 -1.695380 -21.581803 2.158683 -0.411484 -22.285587 2.225479 -0.438399 0.000000 0.000000 -0.000001 -36.560801 5.413375 -2.504783 -34.096239 3.287871 -1.008474 -35.088248 3.371263 -1.066076 -0.000001 -0.000002 -0.000001 -42.699357 6.661853 -3.102178 -39.820225 3.754610 -1.360314 -40.828409 3.833016 -1.427025 0.000000 0.000000 -0.000001 -34.812990 9.547911 -5.377435 -32.233883 3.128608 -0.904229 -41.349167 3.873065 -1.462034 -0.000000 0.000004 -0.000002 -0.000001 -0.000001 0.000001 0.000000 -0.000001 0.000000 -0.000001 -0.000000 -0.000002 -0.000001 -0.000000 -0.000002 18.579570 23.629726 -0.831724 68.527106 51.602776 74.401761 6.174232 50.323866 5.196408 2.516788 27.746142 44.004084 -2.160073 25.347342 -17.850256 -15.177854 -39.781063 17.050797 -14.697220 -0.297090 -7.001360 0.000002 -0.000001 0.000001 13.143766 -4.853691 -0.592568 14.163465 -1.141921 -0.141882 14.154776 -1.141235 -0.141696 0.000000 -0.000001 -0.000002 27.897165 -5.621856 -1.564964 29.328033 -2.284946 -0.597981 31.426875 -2.432197 -0.684371 0.000001 0.000000 0.000000 37.293458 -6.923910 -2.293450 35.456349 -2.705490 -0.865047 37.558090 -2.842774 -0.966776 -0.000001 0.000002 -0.000000 47.238680 -7.783788 -3.688914 43.013704 -3.180750 -1.253634 42.860957 -3.171667 -1.245181 0.000000 0.000000 0.000001 0.000000 0.000000 0.000000 0.000000 0.000000 0.000002 0.000000 0.000001 0.000004 42.823668 35.017018 -22.791032 -0.670108 -3.324529 41.848011 -1.199498 27.961782 35.522398 -0.000039 0.000012 6.241616 -0.000001 -0.000002 -0.000002 -32.670346 -45.022084 -69.598985 -1.191201 5.667371 33.486390 -1.629021 -18.659187 -24.508379 0.000005 -0.000005 -2.122267 0.000000 0.000000 0.000000 -0.000002 -0.000001 -0.000006 0.000003 -0.000000 0.000001 -0.000001 0.000000 0.000002 0.000001 -0.000002 0.000002 -0.000000 -0.000003 0.000002 0.000000 0.000000 0.000003 
-92.354073 80.353714 90.511208 112.521519 -13.635849 -71.605940 -2.476419 3.607450 3.548603 -5.827884 8.462545 6.607357 -5.765294 8.697932 6.501032 -10.651689 5.789212 3.241766 -24.038291 14.975324 10.484547 0.000000 0.000000 0.000001 -0.000002 0.000001 0.000001 0.000002 -0.000003 -0.000003 0.000007 -0.000003 -0.000000 -0.000002 0.000001 0.000001 -0.000001 -0.000000 -0.000001 -0.000001 -0.000001 0.000001 -0.000002 0.000000 0.000002 -0.000004 0.000003 0.000002 -0.000003 0.000001 -0.000001 -25.706637 5.415864 2.245671 -36.740975 26.852784 -22.933359 0.204140 -0.191229 -1.145832 -16.937231 13.339317 44.799041 -2.765321 -12.759105 -0.986164 9.952617 33.049545 12.545481 15.995052 13.625372 -1.783430 -0.000001 0.000001 0.000005 -36.548560 3.513295 -1.952627 -24.101400 2.396232 -0.511629 -24.759084 2.457482 -0.539478 0.000000 0.000002 0.000000 -40.452056 5.695127 -2.879711 -38.123449 3.619986 -1.251188 -39.100941 3.697938 -1.313577 -0.000000 0.000002 -0.000001 -47.377845 7.111034 -3.578988 -44.510646 4.109084 -1.682119 -45.487957 4.179558 -1.752762 -0.000003 0.000001 -0.000001 -38.706439 10.428492 -6.181658 -36.083452 3.453908 -1.125324 -46.144707 4.226200 -1.800882 0.000000 0.000000 0.000000 0.000001 0.000002 0.000000 0.000000 0.000001 0.000000 0.000001 0.000001 -0.000003 0.000001 0.000001 -0.000003 18.997428 23.939510 -0.497344 64.200143 50.392315 70.359912 5.603337 49.822476 4.729851 1.621964 29.478686 42.058492 -2.165313 25.509558 -17.879182 -15.332755 -40.024278 17.197822 -14.697818 -0.222882 -7.035778 0.000002 -0.000002 -0.000002 13.236418 -4.869905 -0.597868 14.297751 -1.152525 -0.144563 14.284138 -1.151443 -0.144274 -0.000001 -0.000003 0.000000 28.174226 -5.647854 -1.585366 29.644285 -2.307342 -0.610651 31.748635 -2.454474 -0.698084 0.000001 0.000001 -0.000001 37.669770 -6.941961 -2.324128 35.845133 -2.731166 -0.883480 37.957509 -2.868448 -0.986679 -0.000003 -0.000001 0.000001 47.696794 -7.793256 -3.725654 43.490861 -3.208961 -1.280231 43.333479 -3.199675 -1.271434 0.000000 0.000001 0.000000 0.000001 0.000000 0.000000 -0.000001 0.000000 0.000001 -0.000002 0.000002 -0.000000 42.740688 34.234505 -22.273575 -0.460217 -1.523133 50.305739 -2.648187 28.104143 33.316154 -0.000002 0.000006 4.658319 0.000001 0.000000 -0.000001 -33.732572 -44.635896 -68.812004 -0.930663 5.933460 33.157241 -1.213247 -18.206734 -24.544836 0.000007 -0.000004 -2.093672 0.000000 -0.000003 0.000000 0.000001 0.000001 -0.000001 -0.000000 0.000001 -0.000002 0.000001 0.000002 -0.000002 -0.000000 -0.000001 0.000005 0.000000 0.000002 0.000000 0.000001 0.000002 0.000002 
